<?xml version="1.0" encoding="UTF-8"?>
<svg xmlns="http://www.w3.org/2000/svg" xmlns:xlink="http://www.w3.org/1999/xlink" width="24pt" height="24pt" viewBox="0 0 24 24" version="1.1">
<g id="surface635664">
<path style="fill-rule:nonzero;fill:rgb(100%,100%,100%);fill-opacity:1;stroke-width:5;stroke-linecap:butt;stroke-linejoin:round;stroke:rgb(80%,80%,80%);stroke-opacity:1;stroke-miterlimit:10;" d="M 112.871544 17.913902 C 135.56691 17.913902 154.086098 36.43309 154.086098 59.128456 L 154.086098 112.871544 C 154.086098 135.56691 135.56691 154.086098 112.871544 154.086098 L 59.128456 154.086098 C 36.43309 154.086098 17.913902 135.56691 17.913902 112.871544 L 17.913902 59.128456 C 17.913902 36.43309 36.43309 17.913902 59.128456 17.913902 Z M 28.656759 59.128456 L 28.656759 112.871544 C 28.656759 129.749062 42.250938 143.343241 59.128456 143.343241 L 112.871544 143.343241 C 129.749062 143.343241 143.343241 129.749062 143.343241 112.871544 L 143.343241 59.128456 C 143.343241 42.250938 129.749062 28.656759 112.871544 28.656759 L 59.128456 28.656759 C 42.250938 28.656759 28.656759 42.250938 28.656759 59.128456 Z M 129.00023 50.171275 C 129.00023 54.117043 125.803294 57.34278 121.828725 57.34278 C 117.882957 57.34278 114.65722 54.117043 114.65722 50.171275 C 114.65722 46.196706 117.882957 42.99977 121.828725 42.99977 C 125.803294 42.99977 129.00023 46.196706 129.00023 50.171275 Z M 121.828725 86 C 121.828725 105.72884 105.72884 121.828725 86 121.828725 C 66.27116 121.828725 50.171275 105.72884 50.171275 86 C 50.171275 66.27116 66.27116 50.171275 86 50.171275 C 105.72884 50.171275 121.828725 66.27116 121.828725 86 Z M 60.914132 86 C 60.914132 99.910992 72.089008 111.085868 86 111.085868 C 99.910992 111.085868 111.085868 99.910992 111.085868 86 C 111.085868 72.089008 99.910992 60.914132 86 60.914132 C 72.089008 60.914132 60.914132 72.089008 60.914132 86 Z M 60.914132 86 " transform="matrix(0.135628,0,0,0.135628,0.336,0.336)"/>
<path style=" stroke:none;fill-rule:nonzero;fill:rgb(100%,100%,100%);fill-opacity:1;" d="M 8.355469 2.765625 C 5.277344 2.765625 2.765625 5.277344 2.765625 8.355469 L 2.765625 15.644531 C 2.765625 18.722656 5.277344 21.234375 8.355469 21.234375 L 15.644531 21.234375 C 18.722656 21.234375 21.234375 18.722656 21.234375 15.644531 L 21.234375 8.355469 C 21.234375 5.277344 18.722656 2.765625 15.644531 2.765625 Z M 8.355469 4.222656 L 15.644531 4.222656 C 17.933594 4.222656 19.777344 6.066406 19.777344 8.355469 L 19.777344 15.644531 C 19.777344 17.933594 17.933594 19.777344 15.644531 19.777344 L 8.355469 19.777344 C 6.066406 19.777344 4.222656 17.933594 4.222656 15.644531 L 4.222656 8.355469 C 4.222656 6.066406 6.066406 4.222656 8.355469 4.222656 Z M 16.859375 6.167969 C 16.324219 6.167969 15.886719 6.601562 15.886719 7.140625 C 15.886719 7.675781 16.324219 8.113281 16.859375 8.113281 C 17.398438 8.113281 17.832031 7.675781 17.832031 7.140625 C 17.832031 6.601562 17.398438 6.167969 16.859375 6.167969 Z M 12 7.140625 C 9.324219 7.140625 7.140625 9.324219 7.140625 12 C 7.140625 14.675781 9.324219 16.859375 12 16.859375 C 14.675781 16.859375 16.859375 14.675781 16.859375 12 C 16.859375 9.324219 14.675781 7.140625 12 7.140625 Z M 12 8.597656 C 13.886719 8.597656 15.402344 10.113281 15.402344 12 C 15.402344 13.886719 13.886719 15.402344 12 15.402344 C 10.113281 15.402344 8.597656 13.886719 8.597656 12 C 8.597656 10.113281 10.113281 8.597656 12 8.597656 Z M 12 8.597656 "/>
</g>
</svg>
